<?xml version="1.0" encoding="utf-8"?>
<!-- Generator: Adobe Illustrator 19.2.1, SVG Export Plug-In . SVG Version: 6.00 Build 0)  -->
<svg version="1.1" id="layer" xmlns="http://www.w3.org/2000/svg" xmlns:xlink="http://www.w3.org/1999/xlink" x="0px" y="0px"
	 viewBox="0 0 652 652" style="enable-background:new 0 0 652 652;" xml:space="preserve">
<style type="text/css">
	.st0{fill:#142355;}
	.st1{fill:#C82814;}
</style>
<path class="st0" d="M115.6,291.8l-2.8,15.5H137l-9.4,53.9h18.9l9.5-53.9h24.5l2.8-15.4L115.6,291.8z M115.6,291.8 M472.8,291.8
	l-2.8,15.4h24.2l-9.5,53.9h18.8l9.5-53.9h24.5l2.8-15.4L472.8,291.8z M472.8,291.8 M92.6,299.2c15,15,15,39.5,0,54.5
	c-15,15-39.5,15-54.5,0l13.6-13.6c7.5,7.5,19.8,7.5,27.3,0c7.5-7.5,7.5-19.8,0-27.3L92.6,299.2L92.6,299.2z M203.8,353.7
	c-15-15-15-39.4,0-54.4c15-15.1,39.5-15.1,54.5,0l-13.6,13.6c-7.5-7.5-19.8-7.5-27.3,0c-7.5,7.5-7.5,19.8,0,27.3L203.8,353.7
	L203.8,353.7z M203.8,353.7 M449.8,299.2c15,15,15,39.5,0,54.5c-15,15-39.5,15-54.5,0l13.6-13.6c7.5,7.5,19.8,7.5,27.3,0
	c7.5-7.5,7.5-19.8,0-27.3L449.8,299.2L449.8,299.2z M561,353.7c-15-15-15-39.4,0-54.4c15-15.1,39.5-15.1,54.5,0L602,312.8
	c-7.5-7.5-19.8-7.5-27.3,0c-7.5,7.5-7.5,19.8,0,27.3L561,353.7L561,353.7z M561,353.7"/>
<path class="st1" d="M351.4,291.8L328.6,315l-14.7-23.2h-17.4l-12.2,69.4h17.9l7.4-42.4l11.1,19.3h8.8l17.2-19.1l-7.3,42.2h17.8
	l12.2-69.4L351.4,291.8z M351.4,291.8 M38.1,353.7c-15.1-15-15.1-39.5,0-54.5c15.1-15,39.4-15,54.4,0.1L79,312.9
	c-7.5-7.5-19.8-7.5-27.3,0c-7.5,7.5-7.5,19.8,0,27.3L38.1,353.7z M38.1,353.7 M258.4,299.2c15,15,15,39.5,0,54.5
	c-15,15-39.4,15-54.4,0l13.6-13.6c7.5,7.5,19.8,7.5,27.3,0c7.5-7.5,7.5-19.8,0-27.3L258.4,299.2z M395.3,353.7
	c-15-15-15-39.4,0-54.4c15-15,39.4-15,54.4,0l-13.6,13.6c-7.5-7.5-19.8-7.5-27.3,0c-7.5,7.5-7.5,19.8,0,27.3L395.3,353.7z
	 M395.3,353.7 M615.5,299.2c15,15,15,39.5,0,54.5c-15,15-39.5,15-54.5,0l13.6-13.6c7.6,7.5,19.8,7.5,27.4,0c7.5-7.5,7.5-19.8,0-27.3
	L615.5,299.2z M615.5,299.2"/>
</svg>
