<svg width="28" height="20" xmlns="http://www.w3.org/2000/svg"><path d="M26.909 1.786C25.898.576 24.032.083 20.469.083H7.531c-3.646 0-5.543.525-6.55 1.813C0 3.15 0 5 0 7.56v4.879c0 4.959 1.165 7.477 7.532 7.477h12.936c3.09 0 4.803-.436 5.911-1.503C27.515 17.32 28 15.533 28 12.44V7.56c0-2.699-.076-4.56-1.091-5.774zm-8.933 8.888l-5.874 3.09a.898.898 0 0 1-.887-.028.91.91 0 0 1-.435-.778v-6.16a.91.91 0 0 1 .434-.777.898.898 0 0 1 .886-.03l5.874 3.07a.91.91 0 0 1 .002 1.613z" fill="#f00" fill-rule="nonzero"/></svg>